<?xml version="1.0" encoding="utf-8"?>
<!-- Generator: Adobe Illustrator 18.0.0, SVG Export Plug-In . SVG Version: 6.00 Build 0)  -->
<!DOCTYPE svg PUBLIC "-//W3C//DTD SVG 1.1//EN" "http://www.w3.org/Graphics/SVG/1.1/DTD/svg11.dtd">
<svg version="1.1" xmlns="http://www.w3.org/2000/svg" xmlns:xlink="http://www.w3.org/1999/xlink" x="0px" y="0px"
	 viewBox="0 270 1139 386" enable-background="new 0 270 1139 386" xml:space="preserve">
<g id="Layer_1">
	<path fill="#EF4136" d="M1089.7,656H49.3C22.2,656,0,633.8,0,606.7V319.3C0,292.2,22.2,270,49.3,270h1040.3
		c27.1,0,49.3,22.2,49.3,49.3v287.3C1139,633.8,1116.8,656,1089.7,656z"/>
</g>
<g id="Layer_3" display="none">
	<g display="inline">
		<path fill="#FFFFFF" d="M175.1,524.7V399.3h21V507h95v17.7H175.1z"/>
		<path fill="#FFFFFF" d="M332.1,428.9c0-11.5,2.1-19.3,6.2-23.4c4.1-4.1,11.9-6.2,23.4-6.2h86.7c11.5,0,18.9,2.1,23,6.2
			c4.1,4.1,6.2,11.9,6.2,23.4v66.2c0,11.5-2.1,19.3-6.2,23.4c-4.1,4.1-11.9,6.2-23,6.2h-87.1c-11.5,0-18.9-2.1-23.4-6.2
			c-4.1-4.1-6.2-11.9-6.2-23.4v-66.2H332.1z M352.7,507h103.6v-90.8H352.7V507z"/>
		<path fill="#FFFFFF" d="M658.1,416.2h-98.2v91.3h98.2v-37h-51v-16h71.5v40.7c0,11.5-2.1,19.3-6.2,23.4s-11.9,6.2-23,6.2h-81
			c-11.5,0-18.9-2.1-23-6.2c-4.1-4.1-6.2-11.9-6.2-23.4v-66.2c0-11.5,2.1-19.3,6.2-23.4c4.1-4.1,11.9-6.2,23-6.2h81
			c11.1,0,18.5,2.1,23,5.8c4.1,4.1,6.6,11.1,6.6,22.2v3.3l-21,4.1V416.2z"/>
		<path fill="#FFFFFF" d="M739.5,524.7V399.3h21v125.4H739.5z"/>
		<path fill="#FFFFFF" d="M825.4,524.7V399.3h13.2l93.7,83.9c4.5,4.1,9.5,9.5,14.4,15.6c-1.2-7.8-2.1-18.1-2.1-30.8v-68.6h19.3
			v125.4h-11.5l-96.2-87.1c-3.7-3.3-5.8-4.9-6.2-5.8c-2.5-2.5-4.9-5.3-6.6-8.6c0.8,7.4,1.6,16.4,1.6,27.5v74H825.4z"/>
	</g>
</g>
<g id="Layer_2">
	<rect y="420" fill="none" width="1139" height="116"/>
	<text transform="matrix(1 0 0 1 236.1802 523.8789)" fill="#FFFFFF" font-family="'BankGothic-Light'" font-size="245">JOIN</text>
</g>
</svg>
