<?xml version="1.0" encoding="utf-8"?>
<!-- Generator: Adobe Illustrator 18.0.0, SVG Export Plug-In . SVG Version: 6.00 Build 0)  -->
<!DOCTYPE svg PUBLIC "-//W3C//DTD SVG 1.1//EN" "http://www.w3.org/Graphics/SVG/1.1/DTD/svg11.dtd">
<svg version="1.1" id="Layer_1" xmlns="http://www.w3.org/2000/svg" xmlns:xlink="http://www.w3.org/1999/xlink" x="0px" y="0px"
	 viewBox="0 0 750.2 530.8" enable-background="new 0 0 750.2 530.8" xml:space="preserve">
<g>
	<g>
		<polygon fill="#EF4136" points="0,67.7 0,402.7 335.4,402.7 335.4,67.7 167.7,151.5 		"/>
		<polygon fill="#EF4136" points="748.6,402.7 748.6,67.7 413.2,67.7 413.2,402.7 580.9,319 		"/>
	</g>
	<g>
		<path fill="#EF4136" d="M0,512.1c16.9,3.9,32.4,5.9,46.3,5.9c10.9,0,18.8-1.4,23.7-4.1c4.9-2.7,7.4-7.3,7.4-13.8
			c0-6.6-2.5-11.4-7.6-14.4c-5.1-3-13.3-4.4-24.5-4.4c-13.6,0-28.6,1.9-45.1,5.7L5,438.1h74.2l-1.1,12.3H16.5l-3.2,22.3
			c11.4-2.5,22.7-3.7,33.9-3.7c30.7,0,46,10.4,46,31.3c0,11.1-3.9,18.9-11.8,23.5c-7.9,4.6-20.4,6.9-37.7,6.9
			c-10.9,0-24-1.3-39.2-3.9L0,512.1z"/>
		<path fill="#EF4136" d="M117.7,488.9v-13h38.7v13H117.7z"/>
		<path fill="#EF4136" d="M171.5,529.7l43.5-75.3h13l44.6,75.3h-15.4l-9.8-17.6h-52l-9.6,17.6H171.5z M201.3,501.3h39.9l-20.1-35.9
			L201.3,501.3z"/>
		<path fill="#EF4136" d="M287.6,488.9v-13h38.7v13H287.6z"/>
		<path fill="#EF4136" d="M438.2,450.4h-64.8v25.7h57.7c8.3,0,13.9,1.5,16.9,4.6c3,3.1,4.4,8.8,4.4,17v10.3c0,8.4-1.5,14.1-4.4,17.1
			c-3,3-8.6,4.5-16.9,4.5h-53.4c-8.3,0-13.9-1.5-17-4.5c-3-3-4.5-8.7-4.5-17.1v-2.5l14.2-3.4v14.7h68.2v-27.5H381
			c-8.2,0-13.8-1.5-16.8-4.5c-3-3-4.5-8.7-4.5-17.1v-8c0-8.5,1.5-14.3,4.5-17.2c3-3,8.6-4.4,16.8-4.4h48.8c7.8,0,13.3,1.4,16.6,4.2
			c3.3,2.8,4.9,8,4.9,15.7v2l-13.1,3.7V450.4z"/>
		<path fill="#EF4136" d="M506.2,529.7h-14.2v-75.1h14.2V529.7z"/>
		<path fill="#EF4136" d="M589.8,454.4c14,0,24,2,30.2,5.9c10.9,6.9,16.3,17.4,16.3,31.6c0,25.2-15.5,37.8-46.5,37.8h-43.3v-75.3
			H589.8z M588.2,465.6h-27.5v52.9h27.5c11.8,0,20.4-2,25.8-5.9c5.4-3.9,8.1-10.9,8.1-20.8c0-9.6-2.8-16.4-8.5-20.5
			C608.3,467.5,599.9,465.6,588.2,465.6z"/>
		<path fill="#EF4136" d="M670,529.7v-75.3h75.8v11.2h-61.6V485h37.1v11.2h-37.1v22.5h62.3v11H670z"/>
	</g>
	<g>
		<path fill="#EF4136" d="M5.1,6.9c0.2,1.5,0.3,3.4,0.3,5.7v26H0V0h5.2l18.6,25.1L41.2,0h5.9v38.5h-5.9v-26l0.3-5.7
			c-0.8,1.8-1.6,3.2-2.3,4.2L24.6,32.4h-1.6L7.7,11.6C7.1,10.8,6.3,9.2,5.1,6.9z"/>
		<path fill="#EF4136" d="M59.5,38.5L80.5,0h6.8l21.3,38.5h-7.1L96.6,29H70.7l-4.9,9.5H59.5z M73.4,24.1H94L83.7,4.4L73.4,24.1z"/>
		<path fill="#EF4136" d="M121,38.5V0h6.4v16.5L151.3,0h9.4l-27.8,18.4l30.8,20.1H153l-25.6-17.3v17.3H121z"/>
		<path fill="#EF4136" d="M175.1,38.5V0H212v5.1h-30.5v10.7h18.6V21h-18.6v12.2h30.8v5.3H175.1z"/>
		<path fill="#EF4136" d="M227.5,38.5V0h30.8c2.8,0,4.9,0.6,6.1,1.8c1.3,1.2,1.9,3.1,1.9,5.7V16c0,2.6-0.6,4.5-1.9,5.7
			c-1.3,1.2-3.3,1.8-6.1,1.8h-5.6l17.5,15h-9.5l-15.6-15h-11.3v15H227.5z M255.8,5h-22v13.5h22c1.5,0,2.6-0.3,3.2-0.8
			c0.6-0.5,0.9-1.6,0.9-3.1V9c0-1.5-0.3-2.5-0.9-3.1C258.5,5.3,257.4,5,255.8,5z"/>
		<path fill="#EF4136" d="M316.7,5.1h-27.1V16h24.1c3.5,0,5.8,0.6,7.1,1.9c1.2,1.3,1.9,3.7,1.9,7.2v4.3c0,3.5-0.6,5.9-1.9,7.2
			c-1.2,1.3-3.6,1.9-7.1,1.9h-22.3c-3.5,0-5.8-0.6-7.1-1.9c-1.3-1.3-1.9-3.7-1.9-7.2v-1l5.9-1.4v6.2h28.5V21.6h-24
			c-3.4,0-5.8-0.6-7-1.9c-1.3-1.3-1.9-3.7-1.9-7.2V9.1c0-3.6,0.6-6,1.9-7.2c1.3-1.2,3.6-1.9,7-1.9h20.4c3.3,0,5.6,0.6,6.9,1.8
			c1.4,1.2,2,3.4,2,6.6v0.8l-5.5,1.6V5.1z"/>
		<path fill="#EF4136" d="M362.3,38.5L383.2,0h6.8l21.3,38.5h-7.1l-4.9-9.5h-25.9l-4.9,9.5H362.3z M376.2,24.1h20.6L386.5,4.4
			L376.2,24.1z"/>
		<path fill="#EF4136" d="M456.2,5.1h-26.6v28h26.6v-9.6l6.4,1.3v4.6c0,3.6-0.6,6-1.9,7.2c-1.2,1.2-3.6,1.9-7.1,1.9h-21.5
			c-3.5,0-5.8-0.6-7.1-1.9c-1.3-1.3-1.9-3.7-1.9-7.2V9.1c0-3.5,0.6-5.9,1.9-7.2c1.3-1.3,3.6-1.9,7.1-1.9h21.5c3.5,0,5.8,0.6,7.1,1.8
			c1.2,1.2,1.9,3.6,1.9,7.2v3.7l-6.4,1.2V5.1z"/>
		<path fill="#EF4136" d="M471.9,38.5L492.8,0h6.8L521,38.5h-7.1L509,29h-25.9l-4.9,9.5H471.9z M485.8,24.1h20.6L496.1,4.4
			L485.8,24.1z"/>
		<path fill="#EF4136" d="M554.4,0c6.7,0,11.6,1,14.7,3c2.5,1.6,4.4,3.8,5.8,6.6c1.4,2.8,2.1,6,2.1,9.4c0,7.5-2.6,13-7.9,16.5
			c-3,2-7.9,3-14.7,3h-21.1V0H554.4z M553.6,5.1h-13.8v28h13.8c5.9,0,10.2-1,12.8-3c2.8-2.1,4.2-5.9,4.2-11.1
			c0-5.1-1.4-8.7-4.2-10.8C563.7,6.1,559.4,5.1,553.6,5.1z"/>
		<path fill="#EF4136" d="M593.3,38.5V0h36.9v5.1h-30.5v10.7h18.6V21h-18.6v12.2h30.8v5.3H593.3z"/>
		<path fill="#EF4136" d="M650.9,6.9c0.2,1.5,0.3,3.4,0.3,5.7v26h-5.4V0h5.2l18.6,25.1L686.9,0h5.9v38.5h-5.9v-26l0.3-5.7
			c-0.8,1.8-1.6,3.2-2.3,4.2l-14.6,21.4h-1.6l-15.2-20.8C652.9,10.8,652,9.2,650.9,6.9z"/>
		<path fill="#EF4136" d="M724.6,38.5V21.7L705.2,0h7.9l15,17.2L742.5,0h7.8L731,21.6v16.9H724.6z"/>
	</g>
</g>
</svg>
